<svg id="visual" viewBox="0 0 1920 1080" width="1920" height="1080" xmlns="http://www.w3.org/2000/svg" xmlns:xlink="http://www.w3.org/1999/xlink" version="1.1"><path d="M0 228L35.5 237C71 246 142 264 213.2 271.2C284.3 278.3 355.7 274.7 426.8 256.7C498 238.7 569 206.3 640 197.3C711 188.3 782 202.7 853.2 215.2C924.3 227.7 995.7 238.3 1066.8 240.2C1138 242 1209 235 1280 222.5C1351 210 1422 192 1493.2 188.3C1564.3 184.7 1635.7 195.3 1706.8 195.3C1778 195.3 1849 184.7 1884.5 179.3L1920 174L1920 0L1884.5 0C1849 0 1778 0 1706.8 0C1635.7 0 1564.3 0 1493.2 0C1422 0 1351 0 1280 0C1209 0 1138 0 1066.8 0C995.7 0 924.3 0 853.2 0C782 0 711 0 640 0C569 0 498 0 426.8 0C355.7 0 284.3 0 213.2 0C142 0 71 0 35.5 0L0 0Z" fill="#be8128"></path><path d="M0 573L35.5 583.8C71 594.7 142 616.3 213.2 620C284.3 623.7 355.7 609.3 426.8 582.3C498 555.3 569 515.7 640 494C711 472.3 782 468.7 853.2 493.8C924.3 519 995.7 573 1066.8 576.7C1138 580.3 1209 533.7 1280 514C1351 494.3 1422 501.7 1493.2 498C1564.3 494.3 1635.7 479.7 1706.8 468.8C1778 458 1849 451 1884.5 447.5L1920 444L1920 172L1884.5 177.3C1849 182.7 1778 193.3 1706.8 193.3C1635.7 193.3 1564.3 182.7 1493.2 186.3C1422 190 1351 208 1280 220.5C1209 233 1138 240 1066.8 238.2C995.7 236.3 924.3 225.7 853.2 213.2C782 200.7 711 186.3 640 195.3C569 204.3 498 236.7 426.8 254.7C355.7 272.7 284.3 276.3 213.2 269.2C142 262 71 244 35.5 235L0 226Z" fill="#e79f35"></path><path d="M0 735L35.5 742.3C71 749.7 142 764.3 213.2 771.7C284.3 779 355.7 779 426.8 762.7C498 746.3 569 713.7 640 688.3C711 663 782 645 853.2 664.8C924.3 684.7 995.7 742.3 1066.8 746C1138 749.7 1209 699.3 1280 681.3C1351 663.3 1422 677.7 1493.2 672.3C1564.3 667 1635.7 642 1706.8 620.5C1778 599 1849 581 1884.5 572L1920 563L1920 442L1884.5 445.5C1849 449 1778 456 1706.8 466.8C1635.7 477.7 1564.3 492.3 1493.2 496C1422 499.7 1351 492.3 1280 512C1209 531.7 1138 578.3 1066.8 574.7C995.7 571 924.3 517 853.2 491.8C782 466.7 711 470.3 640 492C569 513.7 498 553.3 426.8 580.3C355.7 607.3 284.3 621.7 213.2 618C142 614.3 71 592.7 35.5 581.8L0 571Z" fill="#fdb752"></path><path d="M0 1081L35.5 1081C71 1081 142 1081 213.2 1081C284.3 1081 355.7 1081 426.8 1081C498 1081 569 1081 640 1081C711 1081 782 1081 853.2 1081C924.3 1081 995.7 1081 1066.8 1081C1138 1081 1209 1081 1280 1081C1351 1081 1422 1081 1493.2 1081C1564.3 1081 1635.7 1081 1706.8 1081C1778 1081 1849 1081 1884.5 1081L1920 1081L1920 561L1884.5 570C1849 579 1778 597 1706.8 618.5C1635.7 640 1564.3 665 1493.2 670.3C1422 675.7 1351 661.3 1280 679.3C1209 697.3 1138 747.7 1066.8 744C995.7 740.3 924.3 682.7 853.2 662.8C782 643 711 661 640 686.3C569 711.7 498 744.3 426.8 760.7C355.7 777 284.3 777 213.2 769.7C142 762.3 71 747.7 35.5 740.3L0 733Z" fill="#ffc87a"></path></svg>